<svg width="25" height="25" viewBox="0 0 25 25" fill="none" xmlns="http://www.w3.org/2000/svg">
<path fill-rule="evenodd" clip-rule="evenodd" d="M1.68953 12.1798C1.68953 6.38489 6.37933 1.68953 12.1616 1.68953C17.944 1.68953 22.6337 6.38489 22.6337 12.1798C22.6337 17.9746 17.944 22.67 12.1616 22.67C6.37933 22.67 1.68953 17.9746 1.68953 12.1798ZM12.1616 0C5.44368 0 0 5.45434 0 12.1798C0 18.9052 5.44368 24.3595 12.1616 24.3595C18.8796 24.3595 24.3233 18.9052 24.3233 12.1798C24.3233 5.45434 18.8796 0 12.1616 0ZM8.06419 9.1505C8.06419 9.74414 7.58372 10.2254 6.99103 10.2254C6.39835 10.2254 5.91788 9.74414 5.91788 9.1505C5.91788 8.55687 6.39835 8.07563 6.99103 8.07563C7.58372 8.07563 8.06419 8.55687 8.06419 9.1505ZM17.3323 10.2254C17.925 10.2254 18.4054 9.74414 18.4054 9.1505C18.4054 8.55687 17.925 8.07563 17.3323 8.07563C16.7396 8.07563 16.2591 8.55687 16.2591 9.1505C16.2591 9.74414 16.7396 10.2254 17.3323 10.2254ZM7.82869 14.1214L7.46139 14.2887C8.04705 15.8464 9.86461 17.1081 12.1676 17.1081C14.5293 17.1081 16.3686 15.7906 16.9104 14.1849L16.7546 14.1058C16.3387 13.8945 16.1727 13.386 16.384 12.97C16.5953 12.5541 17.1038 12.3881 17.5197 12.5994L19.4436 13.5765C19.8596 13.7878 20.0255 14.2963 19.8142 14.7123C19.603 15.1283 19.0945 15.2942 18.6785 15.0829L18.4286 14.956C17.5325 17.2576 14.9927 18.7976 12.1676 18.7976C9.36697 18.7976 6.82908 17.2737 5.91972 14.9905L5.68239 15.0986C5.25777 15.2919 4.75684 15.1044 4.56352 14.6798C4.37021 14.2552 4.55771 13.7542 4.98233 13.5609L7.12863 12.5838C7.55325 12.3904 8.05418 12.578 8.2475 13.0026C8.44081 13.4272 8.25331 13.9281 7.82869 14.1214Z" fill="#707070"/>
</svg>
