<svg width="114" height="36" viewBox="0 0 114 36" fill="none" xmlns="http://www.w3.org/2000/svg">
<g clip-path="url(#clip0_244_10441)">
<path d="M29.929 0V35.4525H19.1006V21.6598H10.8326V35.4525H0V0H10.8284V13.0388H19.0964V0H29.9248H29.929Z" fill="white"/>
<path d="M53.0612 25.9724L62.6744 26.621C62.1045 29.2195 60.6545 31.4305 58.3204 33.2583C55.9862 35.0861 52.8266 36 48.8497 36C44.4203 36 40.8877 34.7155 38.2518 32.1423C35.6159 29.569 34.2959 26.3809 34.2959 22.5695C34.2959 18.7581 35.595 15.2878 38.1973 12.5714C40.7996 9.85495 44.2694 8.49463 48.6109 8.49463C52.9523 8.49463 56.2125 9.77493 58.8065 12.3397C61.4004 14.9045 62.6953 18.3917 62.6953 22.8053C62.6953 23.1675 62.6869 23.6729 62.6702 24.3131H45.0698C45.1034 25.9766 45.3967 27.2106 45.9498 28.015C46.503 28.8194 47.5506 29.2237 49.1011 29.2237C51.3389 29.2237 52.6589 28.1413 53.057 25.9766L53.0612 25.9724ZM52.3614 19.1161C52.3446 17.3346 51.9884 16.1343 51.2928 15.5194C50.5972 14.9045 49.7339 14.5971 48.703 14.5971C46.2641 14.5971 45.0447 16.1048 45.0447 19.1161H52.3572H52.3614Z" fill="white"/>
<path d="M76.0668 29.2195C77.6173 29.2195 78.6692 28.8152 79.2181 28.0108C79.7713 27.2064 80.0604 25.9724 80.0982 24.3089H62.4978C62.481 23.6687 62.4727 23.1675 62.4727 22.8011C62.4727 18.3875 63.7717 14.8961 66.3615 12.3355C68.9555 9.77493 72.354 8.49042 76.5571 8.49042C80.8985 8.49042 84.3725 9.85074 86.9707 12.5672C89.573 15.2878 90.8721 18.6191 90.8721 22.5653C90.8721 26.5115 89.5521 29.5648 86.9162 32.1381C84.2803 34.7113 80.7477 35.9958 76.3183 35.9958C72.3372 35.9958 69.1817 35.0819 66.8476 33.2541C64.5135 31.4263 63.0593 29.2153 62.4936 26.6168L72.1068 25.9682C72.5049 28.1329 73.8207 29.2153 76.0626 29.2153L76.0668 29.2195ZM80.1233 19.1161C80.1233 16.1048 78.9038 14.5971 76.4649 14.5971C75.4341 14.5971 74.5708 14.9045 73.8752 15.5194C73.1795 16.1343 72.8233 17.3346 72.8066 19.1161H80.1191H80.1233Z" fill="white"/>
<path d="M114 9.0379V15.7637H108.753V25.5049C108.753 26.84 109.005 27.6317 109.503 27.8802C110.002 28.1329 110.522 28.255 111.054 28.255C111.879 28.255 112.864 28.1076 114 27.8128V35.1914C111.967 35.5915 109.968 35.7894 108.003 35.7894C104.831 35.7894 102.501 35.1072 101.013 33.7384C99.5214 32.3697 98.7796 30.1881 98.7796 27.1937L98.8048 24.1025V15.7637H94.874V9.0379H98.8048L98.9598 0.442203L108.753 0.286377V9.0379H114Z" fill="white"/>
</g>
<defs>
<clipPath id="clip0_244_10441">
<rect width="114" height="36" fill="white"/>
</clipPath>
</defs>
</svg>
