<svg width="23" height="22" viewBox="0 0 23 22" fill="none" xmlns="http://www.w3.org/2000/svg">
<g clip-path="url(#clip0_504_12954)">
<path d="M12.0263 22C11.6653 21.9132 11.3652 21.7153 11.0636 21.5067C10.6858 21.2448 10.2685 21.2463 9.86329 21.4655C9.50076 21.6604 9.12909 21.7792 8.71173 21.7016C8.29741 21.6254 7.96992 21.4229 7.71554 21.0864C7.53427 20.8458 7.33625 20.6159 7.123 20.3524C7.41698 20.0616 7.74296 19.7312 8.08264 19.4145C8.12376 19.3764 8.2441 19.3962 8.31569 19.4221C9.03161 19.684 9.7658 19.8621 10.5244 19.9474C11.7445 20.0829 12.9433 19.9794 14.1146 19.617C16.4452 18.8937 18.2167 17.4624 19.4018 15.3321C20.3538 13.6206 20.6813 11.7781 20.4421 9.83667C20.3568 9.13775 20.1832 8.45862 19.9273 7.80386C19.874 7.66834 19.8983 7.58611 20.0004 7.48866C20.3096 7.19326 20.6082 6.88567 20.8747 6.61768C21.123 6.8202 21.3423 7.02119 21.583 7.19021C22.1893 7.61505 22.4147 8.44949 22.0979 9.121C22.0004 9.32656 21.8922 9.53517 21.8481 9.75596C21.7765 10.1031 21.8922 10.4199 22.1177 10.6955C22.5518 11.2238 22.6036 11.8131 22.3446 12.4253C22.2639 12.6156 22.1177 12.7953 21.9608 12.9323C21.484 13.3511 21.3606 13.8353 21.5541 14.4383C21.7856 15.1585 21.5312 15.8361 20.9052 16.2564C20.8047 16.3234 20.6935 16.3782 20.5807 16.4224C20.0126 16.6416 19.7445 17.0634 19.7292 17.6634C19.7171 18.175 19.4962 18.5861 19.0941 18.8983C18.858 19.0825 18.5853 19.18 18.2852 19.2135C18.0461 19.2409 17.7978 19.2668 17.5739 19.3505C17.2814 19.4601 17.0849 19.6946 16.9722 19.99C16.7772 20.4986 16.4467 20.8702 15.9197 21.0468C15.6272 21.1443 15.3347 21.1366 15.0316 21.0727C14.7635 21.0163 14.4802 20.9509 14.2136 20.9828C14.0034 21.0072 13.7643 21.1305 13.6196 21.2859C13.2906 21.6376 12.928 21.8995 12.4558 22.0046H12.0263V22Z" fill="white"/>
<path d="M15.88 1.62759C15.586 1.92147 15.2616 2.25342 14.9264 2.57318C14.8884 2.60973 14.7787 2.59907 14.7147 2.57471C13.7871 2.23362 12.8335 2.0311 11.845 1.99456C10.4162 1.94279 9.04983 2.20165 7.75356 2.80159C5.73071 3.73805 4.24252 5.22269 3.30726 7.24483C2.69644 8.56654 2.43292 9.96134 2.50299 11.4186C2.55021 12.3779 2.74366 13.3037 3.08639 14.199C3.13208 14.3178 3.11838 14.3924 3.02698 14.4807C2.71472 14.7853 2.41312 15.0989 2.14046 15.3745C1.88608 15.1659 1.66674 14.9665 1.42759 14.7974C0.819823 14.3711 0.589815 13.5366 0.91274 12.8697C0.953867 12.7859 0.996517 12.7037 1.03764 12.62C1.26004 12.1753 1.23262 11.7459 0.931018 11.35C0.682732 11.0257 0.495375 10.6816 0.499944 10.2567C0.504514 9.82125 0.65836 9.44818 0.961483 9.13603C1.01175 9.08426 1.06202 9.03401 1.11533 8.98681C1.53117 8.61983 1.64998 8.16607 1.47633 7.64683C1.30726 7.13977 1.31792 6.64641 1.63627 6.21397C1.80383 5.98556 2.05668 5.81806 2.28212 5.63534C2.36285 5.56986 2.47557 5.5455 2.57306 5.49982C2.98585 5.2973 3.23262 4.97296 3.25699 4.51006C3.28593 3.95732 3.43064 3.46701 3.88761 3.11374C4.13742 2.92036 4.41464 2.80311 4.733 2.77875C4.88989 2.76657 5.04983 2.76352 5.20215 2.72698C5.60581 2.63105 5.88913 2.3798 6.03841 1.99304C6.23643 1.48445 6.56849 1.11596 7.09553 0.942371C7.38037 0.847963 7.67131 0.84035 7.96225 0.918008C8.0445 0.940848 8.12828 0.960643 8.21053 0.986529C8.69796 1.13271 9.12142 1.02003 9.45806 0.643921C9.82059 0.238882 10.2486 -0.0412949 10.8015 0.0043862C11.0818 0.0287494 11.3545 0.168838 11.6271 0.261723C11.6728 0.27695 11.7109 0.315017 11.7505 0.346994C12.2258 0.742897 12.7269 0.770305 13.2631 0.467288C13.6987 0.22061 14.1603 0.191679 14.6279 0.378971C14.9143 0.493174 15.1382 0.683511 15.321 0.934757C15.4855 1.16316 15.6744 1.3733 15.88 1.62606V1.62759Z" fill="white"/>
<path d="M10.0507 17.4731C12.698 14.8267 15.3363 12.1909 17.9699 9.55811C18.4041 10.9316 18.2076 13.4288 16.5549 15.3398C14.8138 17.3528 12.1771 18.003 10.0522 17.4731H10.0507Z" fill="white"/>
<path d="M4.99353 12.4343C4.55484 10.1 5.08644 8.02155 6.77113 6.32069C8.4802 4.59547 10.5807 4.04272 12.9448 4.48735C10.2959 7.13381 7.65461 9.77418 4.99353 12.4343Z" fill="white"/>
<path d="M3.71556 13.7104C2.80162 10.7015 3.26621 7.94241 5.35303 5.53958C7.61502 2.93576 11.187 2.15462 14.2639 3.24639C14.0568 3.45196 13.8664 3.64991 13.6607 3.83263C13.6257 3.86461 13.5267 3.83568 13.4612 3.81893C11.7277 3.36212 10.0293 3.46719 8.4071 4.23463C6.01563 5.36599 4.59598 7.26024 4.1512 9.87015C3.97603 10.9025 4.04762 11.9258 4.32942 12.9338C4.36902 13.0785 4.34617 13.1683 4.23955 13.2703C4.08113 13.4226 3.941 13.5947 3.79477 13.7591C3.76887 13.7424 3.74145 13.7272 3.71556 13.7104Z" fill="white"/>
<path d="M8.7209 18.7292C8.9372 18.5251 9.11694 18.3424 9.31496 18.1795C9.3637 18.1399 9.4749 18.149 9.54802 18.1688C11.1885 18.6104 12.8077 18.5419 14.3629 17.8612C16.9128 16.7451 18.4178 14.7899 18.8671 12.0384C19.0316 11.0273 18.9479 10.0254 18.6767 9.04021C18.6386 8.90316 18.6615 8.81789 18.762 8.72044C18.9189 8.56817 19.0575 8.3961 19.222 8.21338C20.1421 10.5675 19.9014 13.8961 17.7003 16.407C15.382 19.052 11.7887 19.8286 8.7209 18.7292Z" fill="white"/>
<g clip-path="url(#clip1_504_12954)">
<path d="M15.4161 10.694C14.9447 10.8782 14.7546 10.824 14.4697 10.4143C13.8905 9.57859 13.3135 8.7429 12.7398 7.90394C12.3385 7.31711 12.4139 6.63196 12.9255 6.13671C13.4359 5.64254 14.127 5.59188 14.7001 6.00674C15.5288 6.60731 16.3564 7.2068 17.1851 7.80738C17.5507 8.07237 17.6023 8.27893 17.4225 8.73473L17.2776 8.87623C16.8228 9.14198 16.5182 8.82583 16.1983 8.6032L15.3076 9.47288C15.5293 9.79999 15.8232 10.1075 15.5621 10.5514L15.4172 10.6929L15.4161 10.694ZM15.2105 7.8799C14.786 7.57255 14.3733 7.27063 13.955 6.9785C13.9112 6.94701 13.7924 6.95256 13.7644 6.98629C13.7251 7.03526 13.7039 7.14729 13.7343 7.19402C14.0166 7.62111 14.3111 8.03841 14.6074 8.46875L15.2105 7.8799Z" fill="white"/>
<path d="M10.0957 15.8891C10.0261 15.9294 9.95764 15.9708 9.88811 16.0111C9.22555 16.4076 8.57626 16.3494 7.95537 15.9749C7.24657 15.546 6.68061 14.9713 6.33913 14.205C6.00694 13.4593 6.16883 12.711 6.755 12.145C7.34674 11.5735 8.09444 11.4337 8.8277 11.7962C9.64165 12.1967 10.2489 12.8203 10.6403 13.6355C10.9467 14.2768 10.8954 14.9108 10.4467 15.5039C10.431 15.5235 10.426 15.5517 10.4156 15.5768L10.0957 15.8891ZM7.9562 14.4688C8.1871 14.6382 8.40341 14.8261 8.64366 14.9694C8.94076 15.1464 9.1888 15.1038 9.41392 14.8861C9.64126 14.6662 9.69285 14.4248 9.52947 14.1193C9.25376 13.6009 8.85458 13.1924 8.34256 12.9047C8.04201 12.7353 7.79826 12.7802 7.57304 13.0022C7.34893 13.2232 7.29941 13.469 7.46837 13.7689C7.60602 14.0146 7.78782 14.2341 7.95296 14.4677L7.9562 14.4688Z" fill="white"/>
<path d="M13.2937 12.7663C12.3681 13.3283 11.5491 13.092 10.7892 12.4837C10.2736 12.0721 9.83267 11.5919 9.59014 10.9625C9.33948 10.3092 9.39165 9.6871 9.85828 9.11468C10.3047 8.56838 11.1436 8.34576 11.7759 8.61159C12.0796 8.73963 12.2285 9.06137 12.1221 9.36268C12.0133 9.67487 11.686 9.84373 11.3554 9.74399C11.1578 9.68437 10.9762 9.67692 10.8177 9.84019C10.6425 10.0198 10.5917 10.2308 10.6897 10.4493C10.9693 11.0743 11.4227 11.5382 12.0412 11.8323C12.2563 11.9343 12.4729 11.8884 12.6544 11.7197C12.8225 11.5641 12.8139 11.3814 12.761 11.1824C12.6713 10.8476 12.8434 10.5288 13.1593 10.4241C13.4708 10.3216 13.7934 10.4823 13.9084 10.8051C14.0906 11.3215 14.0079 11.8142 13.72 12.2842C13.6928 12.3299 13.6677 12.3756 13.6416 12.4224L13.2927 12.7631L13.2937 12.7663Z" fill="white"/>
<path d="M7.10074 18.8142C6.73459 18.97 6.45867 18.8615 6.19661 18.5866C5.38175 17.7327 4.5491 16.894 3.72427 16.0476C3.47478 15.7923 3.43401 15.5009 3.60434 15.2539C3.84469 14.9025 4.26355 14.8608 4.56617 15.1682C5.21499 15.8255 5.85712 16.4893 6.50366 17.151C6.59496 17.2444 6.68626 17.3378 6.79561 17.4497C6.95167 17.2973 7.09546 17.1569 7.23926 17.0165C7.51007 16.7542 7.80175 16.7072 8.05092 16.8864C8.31829 17.0775 8.37456 17.358 8.21171 17.6996C8.20598 17.7116 8.20784 17.7246 8.20641 17.7388L7.10286 18.8163L7.10074 18.8142Z" fill="white"/>
<path d="M18.7891 7.40031C18.4357 7.56701 18.1626 7.47919 17.8994 7.2054C17.0654 6.33189 16.2147 5.47688 15.3729 4.61098C15.0852 4.31656 15.1162 3.94028 15.4346 3.68879C15.6942 3.48411 16.0056 3.51971 16.2743 3.7924C16.9485 4.48011 17.6204 5.17 18.2935 5.8588C18.3477 5.91421 18.4029 5.97071 18.4729 6.04241C18.6301 5.88894 18.7728 5.74962 18.9166 5.6092C19.1874 5.34688 19.4593 5.3064 19.728 5.48775C19.9839 5.66041 20.0413 5.93765 19.8925 6.2825C19.8879 6.29338 19.8919 6.3086 19.8927 6.32056L18.788 7.39922L18.7891 7.40031Z" fill="white"/>
</g>
</g>
<defs>
<clipPath id="clip0_504_12954">
<rect width="22" height="22" fill="white" transform="translate(0.5)"/>
</clipPath>
<clipPath id="clip1_504_12954">
<rect width="18.8484" height="5.02188" fill="white" transform="matrix(0.715474 -0.698639 0.698897 0.715223 3.24181 15.5627)"/>
</clipPath>
</defs>
</svg>
