<svg width="18" height="21" viewBox="0 0 18 21" fill="none" xmlns="http://www.w3.org/2000/svg">
<path fill-rule="evenodd" clip-rule="evenodd" d="M15 14.8434C14.24 14.8434 13.56 15.1596 13.04 15.6551L5.91 11.2801C5.96 11.0377 6 10.7952 6 10.5422C6 10.2892 5.96 10.0467 5.91 9.80422L12.96 5.47139C13.5 5.99849 14.21 6.3253 15 6.3253C16.66 6.3253 18 4.91265 18 3.16265C18 1.41265 16.66 0 15 0C13.34 0 12 1.41265 12 3.16265C12 3.41566 12.04 3.65813 12.09 3.9006L5.04 8.23343C4.5 7.70633 3.79 7.37952 3 7.37952C1.34 7.37952 0 8.79217 0 10.5422C0 12.2922 1.34 13.7048 3 13.7048C3.79 13.7048 4.5 13.378 5.04 12.8509L12.16 17.2364C12.11 17.4578 12.08 17.6898 12.08 17.9217C12.08 19.619 13.39 21 15 21C16.61 21 17.92 19.619 17.92 17.9217C17.92 16.2244 16.61 14.8434 15 14.8434Z" fill="#959595"/>
</svg>
