<svg width="25" height="25" viewBox="0 0 25 25" fill="none" xmlns="http://www.w3.org/2000/svg">
<path fill-rule="evenodd" clip-rule="evenodd" d="M1.68953 12.1798C1.68953 6.38489 6.37933 1.68953 12.1616 1.68953C17.944 1.68953 22.6337 6.38489 22.6337 12.1798C22.6337 17.9746 17.944 22.67 12.1616 22.67C6.37933 22.67 1.68953 17.9746 1.68953 12.1798ZM12.1616 0C5.44368 0 0 5.45434 0 12.1798C0 18.9052 5.44368 24.3595 12.1616 24.3595C18.8796 24.3595 24.3233 18.9052 24.3233 12.1798C24.3233 5.45434 18.8796 0 12.1616 0ZM9.15365 10.2399C9.15365 10.8336 8.67319 11.3148 8.0805 11.3148C7.48782 11.3148 7.00735 10.8336 7.00735 10.2399C7.00735 9.64631 7.48782 9.16508 8.0805 9.16508C8.67319 9.16508 9.15365 9.64631 9.15365 10.2399ZM16.2428 11.3148C16.8355 11.3148 17.316 10.8336 17.316 10.2399C17.316 9.64631 16.8355 9.16508 16.2428 9.16508C15.6502 9.16508 15.1697 9.64631 15.1697 10.2399C15.1697 10.8336 15.6502 11.3148 16.2428 11.3148ZM7.3309 18.0333C7.72695 16.2898 9.64851 14.798 12.1616 14.798C14.6754 14.798 16.6108 16.3011 16.9971 18.0517C17.0977 18.5073 17.5485 18.7951 18.0041 18.6946C18.4597 18.594 18.7475 18.1432 18.6469 17.6876C18.0499 14.9824 15.2673 13.1085 12.1616 13.1085C9.05537 13.1085 6.29409 14.9703 5.68333 17.6591C5.57999 18.1141 5.86503 18.5667 6.31999 18.67C6.77496 18.7733 7.22755 18.4883 7.3309 18.0333Z" fill="#707070"/>
<g clip-path="url(#clip0_589_10106)">
<path fill-rule="evenodd" clip-rule="evenodd" d="M6.59409 6.7476C6.72275 6.55461 7.02558 6.48036 7.27047 6.58175L10.6265 7.97119C10.8714 8.07258 10.9656 8.31122 10.8369 8.50421C10.7083 8.6972 10.4054 8.77145 10.1605 8.67006L6.80455 7.28062C6.55965 7.17923 6.46543 6.94059 6.59409 6.7476Z" fill="#707070"/>
</g>
<g clip-path="url(#clip1_589_10106)">
<path fill-rule="evenodd" clip-rule="evenodd" d="M18.4632 6.7476C18.3345 6.55461 18.0317 6.48036 17.7868 6.58175L14.4308 7.97119C14.1859 8.07258 14.0917 8.31122 14.2203 8.50421C14.349 8.6972 14.6518 8.77145 14.8967 8.67006L18.2527 7.28062C18.4976 7.17923 18.5919 6.94059 18.4632 6.7476Z" fill="#707070"/>
</g>
<defs>
<clipPath id="clip0_589_10106">
<rect width="4.35779" height="2.17889" fill="white" transform="translate(6.53668 6.53662)"/>
</clipPath>
<clipPath id="clip1_589_10106">
<rect width="4.35779" height="2.17889" fill="white" transform="matrix(-1 0 0 1 18.5206 6.53662)"/>
</clipPath>
</defs>
</svg>
