<svg width="25" height="25" viewBox="0 0 25 25" fill="none" xmlns="http://www.w3.org/2000/svg">
<path fill-rule="evenodd" clip-rule="evenodd" d="M1.68953 12.1798C1.68953 6.38489 6.37933 1.68953 12.1616 1.68953C17.944 1.68953 22.6337 6.38489 22.6337 12.1798C22.6337 17.9746 17.944 22.67 12.1616 22.67C6.37933 22.67 1.68953 17.9746 1.68953 12.1798ZM12.1616 0C5.44368 0 0 5.45434 0 12.1798C0 18.9052 5.44368 24.3595 12.1616 24.3595C18.8796 24.3595 24.3233 18.9052 24.3233 12.1798C24.3233 5.45434 18.8796 0 12.1616 0ZM8.06419 9.1505C8.06419 9.74414 7.58372 10.2254 6.99103 10.2254C6.39835 10.2254 5.91788 9.74414 5.91788 9.1505C5.91788 8.55687 6.39835 8.07563 6.99103 8.07563C7.58372 8.07563 8.06419 8.55687 8.06419 9.1505ZM17.3323 10.2254C17.925 10.2254 18.4054 9.74414 18.4054 9.1505C18.4054 8.55687 17.925 8.07563 17.3323 8.07563C16.7396 8.07563 16.2591 8.55687 16.2591 9.1505C16.2591 9.74414 16.7396 10.2254 17.3323 10.2254ZM7.33088 16.9439C7.72693 15.2003 9.64849 13.7086 12.1616 13.7086C14.6754 13.7086 16.6107 15.2117 16.9971 16.9623C17.0977 17.4179 17.5485 17.7057 18.0041 17.6051C18.4597 17.5046 18.7475 17.0538 18.6469 16.5982C18.0499 13.8929 15.2673 12.019 12.1616 12.019C9.05535 12.019 6.29407 13.8809 5.68331 16.5697C5.57997 17.0246 5.86501 17.4772 6.31997 17.5806C6.77494 17.6839 7.22753 17.3989 7.33088 16.9439Z" fill="#707070"/>
</svg>
