<svg width="28" height="28" viewBox="0 0 28 28" fill="none" xmlns="http://www.w3.org/2000/svg">
<g clip-path="url(#clip0_638_11112)">
<path d="M14.6699 27.9999C14.2104 27.8894 13.8285 27.6375 13.4446 27.372C12.9638 27.0386 12.4326 27.0406 11.917 27.3197C11.4556 27.5677 10.9825 27.7189 10.4513 27.62C9.92402 27.5231 9.50721 27.2654 9.18346 26.8371C8.95276 26.5309 8.70073 26.2383 8.42932 25.903C8.80348 25.5328 9.21835 25.1123 9.65067 24.7092C9.70302 24.6607 9.85617 24.6859 9.94729 24.7189C10.8585 25.0522 11.7929 25.279 12.7583 25.3875C14.3112 25.56 15.8369 25.4282 17.3278 24.9669C20.2939 24.0464 22.5486 22.2247 24.0568 19.5134C25.2685 17.3352 25.6853 14.9902 25.3809 12.5193C25.2724 11.6297 25.0514 10.7654 24.7257 9.93205C24.6578 9.75957 24.6888 9.65492 24.8187 9.53089C25.2123 9.15492 25.5922 8.76345 25.9315 8.42236C26.2475 8.68012 26.5267 8.93593 26.833 9.15105C27.6046 9.69174 27.8915 10.7538 27.4882 11.6084C27.3642 11.87 27.2265 12.1355 27.1703 12.4165C27.0792 12.8584 27.2265 13.2615 27.5134 13.6123C28.066 14.2848 28.1319 15.0348 27.8023 15.8138C27.6996 16.0561 27.5134 16.2848 27.3138 16.4592C26.707 16.9921 26.5499 17.6084 26.7961 18.3759C27.0908 19.2925 26.7671 20.1549 25.9703 20.6898C25.8423 20.7751 25.7008 20.8448 25.5573 20.901C24.8342 21.1801 24.493 21.7169 24.4736 22.4805C24.4581 23.1317 24.177 23.6549 23.6652 24.0522C23.3647 24.2867 23.0177 24.4107 22.6358 24.4534C22.3314 24.4883 22.0154 24.5212 21.7304 24.6278C21.3582 24.7673 21.1081 25.0658 20.9647 25.4417C20.7165 26.089 20.2958 26.5619 19.6251 26.7867C19.2528 26.9107 18.8806 26.901 18.4948 26.8197C18.1536 26.7479 17.793 26.6646 17.4538 26.7053C17.1862 26.7363 16.8819 26.8933 16.6977 27.091C16.2789 27.5386 15.8175 27.872 15.2166 28.0057H14.6699V27.9999Z" fill="#FF7878"/>
<path d="M19.5746 2.07161C19.2004 2.44564 18.7875 2.86812 18.361 3.2751C18.3125 3.32161 18.1729 3.30804 18.0915 3.27703C16.9109 2.84293 15.6973 2.58517 14.4391 2.53866C12.6206 2.47277 10.8817 2.80223 9.23186 3.56579C6.65733 4.75765 4.76326 6.64719 3.57292 9.22083C2.79552 10.903 2.46014 12.6782 2.54931 14.5328C2.60941 15.7538 2.85562 16.9321 3.29182 18.0716C3.34998 18.2228 3.33253 18.3177 3.21621 18.4301C2.81879 18.8177 2.43493 19.217 2.08791 19.5677C1.76416 19.3022 1.48499 19.0484 1.18062 18.8332C0.4071 18.2906 0.114363 17.2286 0.525358 16.3797C0.577701 16.2732 0.631984 16.1685 0.684327 16.0619C0.967371 15.496 0.932475 14.9495 0.548622 14.4456C0.232621 14.0328 -0.0058339 13.5949 -1.79307e-05 13.0542C0.00579804 12.4999 0.201602 12.0251 0.587395 11.6278C0.65137 11.5619 0.715346 11.498 0.783199 11.4379C1.31245 10.9708 1.46367 10.3933 1.24266 9.73246C1.02747 9.08711 1.04104 8.4592 1.44622 7.90882C1.65947 7.61812 1.98129 7.40494 2.26821 7.17238C2.37096 7.08905 2.51442 7.05804 2.63849 6.9999C3.16387 6.74215 3.47793 6.32936 3.50895 5.74021C3.54578 5.03672 3.72996 4.41269 4.31155 3.96308C4.62949 3.71696 4.98233 3.56773 5.38751 3.53672C5.58719 3.52122 5.79075 3.51734 5.98461 3.47083C6.49836 3.34874 6.85895 3.02897 7.04893 2.53672C7.30096 1.88944 7.72359 1.42044 8.39436 1.19951C8.75689 1.07936 9.12717 1.06967 9.49746 1.16851C9.60214 1.19758 9.70877 1.22277 9.81346 1.25572C10.4338 1.44176 10.9728 1.29835 11.4012 0.819669C11.8626 0.304165 12.4074 -0.0524239 13.1111 0.0057156C13.4678 0.0367234 13.8148 0.215018 14.1619 0.333235C14.22 0.352615 14.2685 0.401064 14.3189 0.441762C14.9238 0.945638 15.5616 0.980522 16.244 0.594863C16.7984 0.280909 17.3858 0.244088 17.981 0.48246C18.3455 0.627809 18.6305 0.870057 18.8631 1.18982C19.0725 1.48052 19.3129 1.74796 19.5746 2.06967V2.07161Z" fill="#FF7878"/>
<path d="M12.1554 22.2382C15.5248 18.87 18.8825 15.5153 22.2345 12.1646C22.787 13.9126 22.5369 17.0909 20.4335 19.5231C18.2176 22.0851 14.8618 22.9126 12.1573 22.2382H12.1554Z" fill="#FF7878"/>
<path d="M5.71907 15.8256C5.16074 12.8546 5.83733 10.2093 7.98148 8.04456C10.1567 5.84882 12.8301 5.14533 15.8388 5.71122C12.4675 9.07944 9.1059 12.4399 5.71907 15.8256Z" fill="#FF7878"/>
<path d="M4.09258 17.4494C2.92938 13.6199 3.52067 10.1083 6.17663 7.05016C9.05554 3.7362 13.6017 2.74202 17.5178 4.13155C17.2541 4.39318 17.0118 4.64512 16.7501 4.87768C16.7055 4.91837 16.5795 4.88155 16.4961 4.86023C14.2899 4.27884 12.1283 4.41256 10.0636 5.3893C7.01995 6.82923 5.21312 9.24008 4.64703 12.5618C4.42409 13.8757 4.5152 15.1781 4.87386 16.461C4.92426 16.6451 4.89518 16.7595 4.75948 16.8893C4.55786 17.0831 4.3795 17.3021 4.19339 17.5114C4.16043 17.4901 4.12554 17.4707 4.09258 17.4494Z" fill="#FF7878"/>
<path d="M10.463 23.8373C10.7383 23.5776 10.9671 23.3451 11.2191 23.1377C11.2811 23.0873 11.4226 23.099 11.5157 23.1242C13.6036 23.6862 15.6644 23.599 17.6438 22.7327C20.8891 21.3121 22.8045 18.8238 23.3764 15.3218C23.5858 14.035 23.4791 12.7598 23.1341 11.5059C23.0856 11.3315 23.1147 11.223 23.2426 11.099C23.4423 10.9052 23.6187 10.6862 23.8281 10.4536C24.9991 13.4497 24.6927 17.6862 21.8914 20.8819C18.9408 24.2482 14.3675 25.2366 10.463 23.8373Z" fill="#FF7878"/>
<g clip-path="url(#clip1_638_11112)">
<path d="M18.9841 13.6102C18.3843 13.8447 18.1422 13.7757 17.7796 13.2543C17.0425 12.1907 16.3081 11.1271 15.578 10.0593C15.0672 9.31242 15.1632 8.44041 15.8143 7.81009C16.4639 7.18115 17.3435 7.11667 18.0729 7.64468C19.1276 8.40904 20.1809 9.17203 21.2355 9.9364C21.701 10.2737 21.7666 10.5366 21.5377 11.1167L21.3533 11.2968C20.7745 11.635 20.3868 11.2326 19.9797 10.9493L18.8461 12.0561C19.1282 12.4724 19.5023 12.8638 19.1699 13.4288L18.9855 13.6088L18.9841 13.6102ZM18.7225 10.0287C18.1822 9.63753 17.657 9.25326 17.1246 8.88146C17.0688 8.84138 16.9176 8.84844 16.882 8.89138C16.832 8.9537 16.805 9.09628 16.8437 9.15576C17.2029 9.69933 17.5778 10.2304 17.9549 10.7781L18.7225 10.0287Z" fill="#FF7878"/>
<path d="M12.2127 20.2225C12.1242 20.2738 12.037 20.3265 11.9485 20.3778C11.1053 20.8823 10.2789 20.8083 9.4887 20.3316C8.58659 19.7858 7.86628 19.0543 7.43167 18.079C7.00888 17.13 7.21492 16.1776 7.96095 15.4572C8.71407 14.7299 9.66569 14.5519 10.5989 15.0133C11.6349 15.523 12.4077 16.3167 12.9059 17.3542C13.2959 18.1704 13.2305 18.9773 12.6595 19.7322C12.6395 19.7571 12.6331 19.7931 12.6199 19.8249L12.2127 20.2225ZM9.48975 18.4148C9.78363 18.6304 10.0589 18.8696 10.3647 19.052C10.7428 19.2772 11.0585 19.2229 11.345 18.9459C11.6344 18.666 11.7 18.3587 11.4921 17.97C11.1412 17.3102 10.6331 16.7903 9.98148 16.4241C9.59897 16.2086 9.28874 16.2656 9.0021 16.5482C8.71687 16.8294 8.65384 17.1423 8.86889 17.5241C9.04407 17.8367 9.27546 18.116 9.48563 18.4134L9.48975 18.4148Z" fill="#FF7878"/>
<path d="M16.2829 16.248C15.1049 16.9632 14.0625 16.6625 13.0953 15.8884C12.4392 15.3644 11.878 14.7532 11.5693 13.9522C11.2503 13.1207 11.3167 12.329 11.9106 11.6005C12.4787 10.9052 13.5465 10.6218 14.3512 10.9602C14.7377 11.1231 14.9272 11.5326 14.7918 11.9161C14.6533 12.3134 14.2367 12.5283 13.8161 12.4014C13.5645 12.3255 13.3334 12.316 13.1317 12.5238C12.9087 12.7524 12.844 13.0209 12.9688 13.299C13.3247 14.0945 13.9016 14.6849 14.6888 15.0592C14.9626 15.1891 15.2383 15.1307 15.4692 14.916C15.6832 14.7179 15.6722 14.4854 15.605 14.2321C15.4908 13.806 15.7098 13.4003 16.1119 13.267C16.5084 13.1366 16.9189 13.341 17.0653 13.7519C17.2972 14.4091 17.1919 15.0362 16.8255 15.6344C16.7909 15.6925 16.759 15.7507 16.7257 15.8102L16.2816 16.2438L16.2829 16.248Z" fill="#FF7878"/>
<path d="M8.40066 23.9449C7.93465 24.1432 7.58349 24.0052 7.24995 23.6553C6.21285 22.5685 5.15313 21.501 4.10333 20.4239C3.78581 20.0989 3.73392 19.7281 3.95071 19.4137C4.2566 18.9664 4.7897 18.9133 5.17485 19.3046C6.00062 20.1411 6.81788 20.986 7.64075 21.8281C7.75695 21.947 7.87315 22.0659 8.01232 22.2083C8.21094 22.0144 8.39395 21.8357 8.57696 21.657C8.92164 21.3231 9.29286 21.2633 9.60998 21.4913C9.95028 21.7346 10.0219 22.0916 9.81463 22.5264C9.80733 22.5416 9.8097 22.5582 9.80788 22.5762L8.40337 23.9477L8.40066 23.9449Z" fill="#FF7878"/>
<path d="M23.2771 9.41827C22.8274 9.63043 22.4797 9.51865 22.1448 9.1702C21.0833 8.05846 20.0006 6.97026 18.9292 5.86821C18.5631 5.49349 18.6024 5.01459 19.0077 4.69451C19.3381 4.43401 19.7345 4.47932 20.0764 4.82638C20.9345 5.70165 21.7897 6.57969 22.6464 7.45635C22.7153 7.52687 22.7855 7.59877 22.8747 7.69003C23.0747 7.4947 23.2563 7.31738 23.4393 7.13868C23.784 6.80481 24.1301 6.75328 24.4721 6.98409C24.7977 7.20385 24.8708 7.55669 24.6815 7.9956C24.6756 8.00944 24.6807 8.02881 24.6817 8.04404L23.2757 9.41688L23.2771 9.41827Z" fill="#FF7878"/>
</g>
</g>
<defs>
<clipPath id="clip0_638_11112">
<rect width="28" height="28" fill="white"/>
</clipPath>
<clipPath id="clip1_638_11112">
<rect width="23.9888" height="6.39148" fill="white" transform="matrix(0.715474 -0.698639 0.698897 0.715223 3.48962 19.8071)"/>
</clipPath>
</defs>
</svg>
