<svg width="20" height="24" viewBox="0 0 20 24" fill="none" xmlns="http://www.w3.org/2000/svg">
<path fill-rule="evenodd" clip-rule="evenodd" d="M10.2922 7.91675C9.16632 7.91675 8.25049 8.83258 8.25049 9.95958C8.25049 11.0854 9.16632 12.0001 10.2922 12.0001C11.418 12.0001 12.3338 11.0854 12.3338 9.95958C12.3338 8.83258 11.418 7.91675 10.2922 7.91675ZM10.2922 13.7501C8.20149 13.7501 6.50049 12.0502 6.50049 9.95958C6.50049 7.86775 8.20149 6.16675 10.2922 6.16675C12.3828 6.16675 14.0838 7.86775 14.0838 9.95958C14.0838 12.0502 12.3828 13.7501 10.2922 13.7501Z" fill="#FF7878"/>
<mask id="mask0_352_2760" style="mask-type:luminance" maskUnits="userSpaceOnUse" x="0" y="0" width="20" height="24">
<path fill-rule="evenodd" clip-rule="evenodd" d="M0.666504 0.333374H19.9159V23.0834H0.666504V0.333374Z" fill="white"/>
</mask>
<g mask="url(#mask0_352_2760)">
<path fill-rule="evenodd" clip-rule="evenodd" d="M10.291 2.08337C5.94868 2.08337 2.41602 5.64987 2.41602 10.0319C2.41602 15.6074 8.97735 21.0394 10.291 21.3287C11.6047 21.0382 18.166 15.6062 18.166 10.0319C18.166 5.64987 14.6333 2.08337 10.291 2.08337V2.08337ZM10.291 23.0834C8.19802 23.0834 0.666016 16.606 0.666016 10.0319C0.666016 4.68387 4.98385 0.333374 10.291 0.333374C15.5982 0.333374 19.916 4.68387 19.916 10.0319C19.916 16.606 12.384 23.0834 10.291 23.0834V23.0834Z" fill="#FF7878"/>
</g>
</svg>
