<svg width="11" height="13" viewBox="0 0 11 13" fill="none" xmlns="http://www.w3.org/2000/svg">
<path fill-rule="evenodd" clip-rule="evenodd" d="M5.65625 4.3125C5.05313 4.3125 4.5625 4.80313 4.5625 5.40688C4.5625 6.01 5.05313 6.5 5.65625 6.5C6.25938 6.5 6.75 6.01 6.75 5.40688C6.75 4.80313 6.25938 4.3125 5.65625 4.3125ZM5.65625 7.4375C4.53625 7.4375 3.625 6.52688 3.625 5.40687C3.625 4.28625 4.53625 3.375 5.65625 3.375C6.77625 3.375 7.6875 4.28625 7.6875 5.40687C7.6875 6.52688 6.77625 7.4375 5.65625 7.4375Z" fill="white"/>
<mask id="mask0_1221_2675" style="mask-type:luminance" maskUnits="userSpaceOnUse" x="0" y="0" width="11" height="13">
<path fill-rule="evenodd" clip-rule="evenodd" d="M0.5 0.25H10.8122V12.4375H0.5V0.25Z" fill="white"/>
</mask>
<g mask="url(#mask0_1221_2675)">
<path fill-rule="evenodd" clip-rule="evenodd" d="M5.65625 1.1875C3.33 1.1875 1.4375 3.09812 1.4375 5.44563C1.4375 8.4325 4.9525 11.3425 5.65625 11.4975C6.36 11.3419 9.875 8.43188 9.875 5.44563C9.875 3.09812 7.9825 1.1875 5.65625 1.1875ZM5.65625 12.4375C4.535 12.4375 0.5 8.9675 0.5 5.44562C0.5 2.58062 2.81313 0.25 5.65625 0.25C8.49937 0.25 10.8125 2.58062 10.8125 5.44562C10.8125 8.9675 6.7775 12.4375 5.65625 12.4375Z" fill="white"/>
</g>
</svg>
