<svg width="20" height="20" viewBox="0 0 20 20" fill="none" xmlns="http://www.w3.org/2000/svg">
<path fill-rule="evenodd" clip-rule="evenodd" d="M2.8 19H10C15.04 19 19 15.04 19 10C19 5.05 14.95 1 10 1C5.05 1 1 5.05 1 10V17.2C1 18.19 1.81 19 2.8 19ZM6.4 10C6.4 10.4971 5.99705 10.9 5.5 10.9C5.00294 10.9 4.6 10.4971 4.6 10C4.6 9.50294 5.00294 9.1 5.5 9.1C5.99705 9.1 6.4 9.50294 6.4 10ZM14.5 10.9C14.9971 10.9 15.4 10.4971 15.4 10C15.4 9.50294 14.9971 9.1 14.5 9.1C14.0029 9.1 13.6 9.50294 13.6 10C13.6 10.4971 14.0029 10.9 14.5 10.9ZM10.9 10C10.9 10.4971 10.4971 10.9 10 10.9C9.50294 10.9 9.1 10.4971 9.1 10C9.1 9.50294 9.50294 9.1 10 9.1C10.4971 9.1 10.9 9.50294 10.9 10Z" stroke="#959595" stroke-width="1.5" stroke-miterlimit="10" stroke-linecap="round" stroke-linejoin="round"/>
</svg>
