<svg width="139" height="109" viewBox="0 0 139 109" fill="none" xmlns="http://www.w3.org/2000/svg">
<g clip-path="url(#clip0_244_10446)">
<path fill-rule="evenodd" clip-rule="evenodd" d="M38.3454 35.8343C18.594 35.8343 2.58508 51.6402 2.58508 71.141C2.58508 90.6419 18.594 106.448 38.3454 106.448C54.4689 106.448 68.1096 95.9064 72.5675 81.4216L75.0409 82.1636C70.2613 97.6938 55.6385 109 38.3454 109C17.1663 109 0 92.0515 0 71.141C0 50.2306 17.1663 33.282 38.3454 33.282C59.5245 33.282 76.6908 50.2306 76.6908 71.141H74.1058C74.1058 51.6402 58.0968 35.8343 38.3454 35.8343Z" fill="#FF7878"/>
<path fill-rule="evenodd" clip-rule="evenodd" d="M85.2157 0.00146484L138.998 42.2923L96.1555 95.4114L42.3535 53.1032L51.2251 42.1169L53.2464 43.708L45.9871 52.6977L95.7437 91.8247L135.365 42.6989L85.6064 3.57152L60.4594 34.0872L58.4542 32.4764L85.2157 0.00146484Z" fill="#FF7878"/>
</g>
<defs>
<clipPath id="clip0_244_10446">
<rect width="139" height="109" fill="white"/>
</clipPath>
</defs>
</svg>
