<svg width="65" height="22" viewBox="0 0 65 22" fill="none" xmlns="http://www.w3.org/2000/svg">
<g clip-path="url(#clip0_177_3007)">
<path d="M17.0648 0V21.6654H10.8907V13.2365H6.17648V21.6654H0V0H6.17409V7.96818H10.8883V0H17.0624H17.0648Z" fill="#FF7878"/>
<path d="M30.6995 15.6809L36.1807 16.0772C35.8558 17.6652 35.029 19.0164 33.6982 20.1334C32.3673 21.2504 30.5657 21.8088 28.2982 21.8088C25.7727 21.8088 23.7585 21.0239 22.2556 19.4513C20.7526 17.8788 20 15.9305 20 13.6013C20 11.2721 20.7407 9.15138 22.2245 7.49134C23.7083 5.83131 25.6867 5 28.162 5C30.6374 5 32.4963 5.7824 33.9753 7.34979C35.4543 8.91717 36.1927 11.0482 36.1927 13.7454C36.1927 13.9668 36.1879 14.2756 36.1783 14.6668H26.143C26.1621 15.6834 26.3294 16.4375 26.6448 16.9291C26.9602 17.4207 27.5575 17.6678 28.4416 17.6678C29.7175 17.6678 30.4702 17.0063 30.6971 15.6834L30.6995 15.6809ZM30.3005 11.4909C30.291 10.4022 30.0879 9.66869 29.6912 9.29293C29.2946 8.91717 28.8024 8.72929 28.2146 8.72929C26.824 8.72929 26.1287 9.65068 26.1287 11.4909H30.2981H30.3005Z" fill="#FF7878"/>
<path d="M43.3712 17.8564C44.2552 17.8564 44.855 17.6093 45.168 17.1177C45.4834 16.6261 45.6482 15.872 45.6697 14.8554H35.6345C35.6249 14.4642 35.6201 14.1579 35.6201 13.934C35.6201 11.2368 36.3608 9.1032 37.8374 7.53839C39.3164 5.97358 41.2542 5.1886 43.6507 5.1886C46.1261 5.1886 48.1069 6.0199 49.5883 7.67994C51.0721 9.34255 51.8128 11.3784 51.8128 13.7899C51.8128 16.2015 51.0601 18.0674 49.5572 19.6399C48.0543 21.2125 46.0401 21.9974 43.5145 21.9974C41.2447 21.9974 39.4455 21.4389 38.1146 20.322C36.7837 19.205 35.9546 17.8538 35.6321 16.2658L41.1132 15.8695C41.3402 17.1923 42.0905 17.8538 43.3688 17.8538L43.3712 17.8564ZM45.6841 11.682C45.6841 9.84185 44.9888 8.92047 43.5982 8.92047C43.0104 8.92047 42.5182 9.10835 42.1215 9.48411C41.7249 9.85987 41.5218 10.5934 41.5123 11.682H45.6817H45.6841Z" fill="#FF7878"/>
<path d="M64.698 5.34815V9.45835H61.7065V15.4113C61.7065 16.2272 61.8499 16.711 62.1342 16.8629C62.4185 17.0173 62.7148 17.0919 63.0183 17.0919C63.489 17.0919 64.0505 17.0019 64.698 16.8217V21.3308C63.5391 21.5753 62.3994 21.6963 61.2788 21.6963C59.4701 21.6963 58.1416 21.2794 57.2934 20.4429C56.4428 19.6065 56.0198 18.2733 56.0198 16.4434L56.0342 14.5543V9.45835H53.793V5.34815H56.0342L56.1226 0.0952269L61.7065 0V5.34815H64.698Z" fill="#FF7878"/>
</g>
<defs>
<clipPath id="clip0_177_3007">
<rect width="65" height="22" fill="white"/>
</clipPath>
</defs>
</svg>
