<svg width="25" height="25" viewBox="0 0 25 25" fill="none" xmlns="http://www.w3.org/2000/svg">
<path fill-rule="evenodd" clip-rule="evenodd" d="M1.68953 12.1798C1.68953 6.38489 6.37933 1.68953 12.1616 1.68953C17.944 1.68953 22.6337 6.38489 22.6337 12.1798C22.6337 17.9746 17.944 22.67 12.1616 22.67C6.37933 22.67 1.68953 17.9746 1.68953 12.1798ZM12.1616 0C5.44368 0 0 5.45434 0 12.1798C0 18.9052 5.44368 24.3595 12.1616 24.3595C18.8796 24.3595 24.3233 18.9052 24.3233 12.1798C24.3233 5.45434 18.8796 0 12.1616 0ZM6.5088 13.9732C6.25248 13.9726 6.00977 14.0885 5.84903 14.2882C5.68829 14.4878 5.6269 14.7497 5.68214 15C6.27918 17.7052 9.06176 19.5791 12.1674 19.5791C15.2492 19.5791 17.9914 17.7466 18.6309 15.092C18.6554 15.0131 18.6686 14.9292 18.6687 14.8423C18.6692 14.3761 18.2919 13.9976 17.8257 13.9966L17.8239 13.9966H17.822L6.5088 13.9732ZM7.75332 15.6653L16.5707 15.6836C15.7899 16.9465 14.1657 17.8896 12.1674 17.8896C10.1663 17.8896 8.53168 16.937 7.75332 15.6653ZM9.19574 9.24812C9.34403 9.0566 9.42989 8.82208 9.42989 8.56997C9.42989 7.9231 8.86209 7.39739 8.16162 7.39739C7.86699 7.39739 7.59577 7.49119 7.38114 7.64754C7.16651 7.49119 6.8953 7.39739 6.60067 7.39739C5.90019 7.39739 5.3324 7.9231 5.3324 8.56997C5.3324 8.82208 5.4202 9.0566 5.56654 9.24812L5.57044 9.25203C5.66605 9.37515 5.78703 9.48068 5.92556 9.56081L7.4787 10.9151L8.94794 9.4885C9.0416 9.4201 9.12355 9.33997 9.19184 9.25203L9.19574 9.24812ZM19.186 8.56997C19.186 8.82208 19.1002 9.0566 18.9519 9.24812L18.948 9.25203C18.8797 9.33997 18.7978 9.4201 18.7041 9.4885L17.2349 10.9151L15.6817 9.56081C15.5432 9.48068 15.4222 9.37515 15.3266 9.25203L15.3227 9.24812C15.1764 9.0566 15.0885 8.82208 15.0885 8.56997C15.0885 7.9231 15.6563 7.39739 16.3568 7.39739C16.6514 7.39739 16.9227 7.49119 17.1373 7.64754C17.3519 7.49119 17.6231 7.39739 17.9178 7.39739C18.6182 7.39739 19.186 7.9231 19.186 8.56997Z" fill="#707070"/>
</svg>
