<svg width="14" height="14" viewBox="0 0 14 14" fill="none" xmlns="http://www.w3.org/2000/svg">
<path d="M13.5216 11.2077L11.1567 8.83939L9.33763 8.08678C9.94332 7.2242 10.2678 6.19516 10.2666 5.14067C10.2666 2.30609 7.96385 0 5.13332 0C2.30279 0 0 2.30609 0 5.14067C0 7.97526 2.30279 10.2813 5.13332 10.2813C6.19546 10.2826 7.23153 9.95198 8.0972 9.33567L8.84678 11.1524L11.2116 13.5209C11.3633 13.6728 11.5434 13.7933 11.7415 13.8755C11.9397 13.9577 12.1521 14 12.3666 14C12.5811 14 12.7935 13.9577 12.9917 13.8755C13.1898 13.7933 13.3699 13.6728 13.5216 13.521C13.6732 13.3691 13.7936 13.1888 13.8756 12.9903C13.9577 12.7919 14 12.5792 14 12.3644C14 12.1495 13.9578 11.9368 13.8757 11.7384C13.7936 11.5399 13.6733 11.3596 13.5216 11.2077ZM0.933331 5.14067C0.933331 2.82153 2.81749 0.934668 5.13332 0.934668C7.44915 0.934668 9.33331 2.82153 9.33331 5.14067C9.33331 7.45982 7.44915 9.34668 5.13332 9.34668C2.81749 9.34668 0.933331 7.45982 0.933331 5.14067ZM12.8616 12.86C12.7302 12.9913 12.5522 13.065 12.3666 13.065C12.181 13.065 12.003 12.9913 11.8717 12.86L9.63831 10.6234L8.9414 8.93417L10.6283 9.63208L12.8617 11.8686C12.9927 12.0002 13.0663 12.1785 13.0663 12.3643C13.0663 12.5502 12.9927 12.7284 12.8616 12.86Z" fill="white"/>
</svg>
