<svg width="15" height="17" viewBox="0 0 15 17" fill="none" xmlns="http://www.w3.org/2000/svg">
<path fill-rule="evenodd" clip-rule="evenodd" d="M7.20858 6.08301C6.40441 6.08301 5.75024 6.73717 5.75024 7.54217C5.75024 8.34634 6.40441 8.99967 7.20858 8.99967C8.01274 8.99967 8.66691 8.34634 8.66691 7.54217C8.66691 6.73717 8.01274 6.08301 7.20858 6.08301ZM7.20858 10.2497C5.71524 10.2497 4.50024 9.03551 4.50024 7.54217C4.50024 6.04801 5.71524 4.83301 7.20858 4.83301C8.70191 4.83301 9.91691 6.04801 9.91691 7.54217C9.91691 9.03551 8.70191 10.2497 7.20858 10.2497Z" fill="white"/>
<mask id="mask0_640_4703" style="mask-type:luminance" maskUnits="userSpaceOnUse" x="0" y="0" width="15" height="17">
<path fill-rule="evenodd" clip-rule="evenodd" d="M0.333252 0.666504H14.0828V16.9165H0.333252V0.666504Z" fill="white"/>
</mask>
<g mask="url(#mask0_640_4703)">
<path fill-rule="evenodd" clip-rule="evenodd" d="M7.20776 1.9165C4.1061 1.9165 1.58276 4.464 1.58276 7.594C1.58276 11.5765 6.26943 15.4565 7.20776 15.6632C8.1461 15.4557 12.8328 11.5757 12.8328 7.594C12.8328 4.464 10.3094 1.9165 7.20776 1.9165ZM7.20776 16.9165C5.71276 16.9165 0.332764 12.2898 0.332764 7.594C0.332764 3.774 3.41693 0.666504 7.20776 0.666504C10.9986 0.666504 14.0828 3.774 14.0828 7.594C14.0828 12.2898 8.70276 16.9165 7.20776 16.9165Z" fill="white"/>
</g>
</svg>
