<svg width="21" height="22" viewBox="0 0 21 22" fill="none" xmlns="http://www.w3.org/2000/svg">
<mask id="mask0_638_15424" style="mask-type:luminance" maskUnits="userSpaceOnUse" x="0" y="0" width="21" height="22">
<path fill-rule="evenodd" clip-rule="evenodd" d="M0 0H20.4752V22H0V0Z" fill="white"/>
</mask>
<g mask="url(#mask0_638_15424)">
<path fill-rule="evenodd" clip-rule="evenodd" d="M5.5239 16.3931C5.76704 16.3931 6.01017 16.4239 6.248 16.4876C6.96572 16.6808 7.58896 17.1607 7.95844 17.8052C8.19839 18.2097 8.3311 18.6822 8.33535 19.1642C8.33535 19.8543 8.88957 20.4075 9.5712 20.4075H10.9015C11.58 20.4075 12.1342 19.8575 12.1374 19.179C12.1331 18.4295 12.4262 17.717 12.9623 17.1809C13.4911 16.6521 14.23 16.3347 14.969 16.3559C15.4532 16.3676 15.9192 16.4982 16.3301 16.7318C16.9215 17.0705 17.6764 16.8687 18.0183 16.2848L18.7233 15.1094C18.8804 14.8387 18.9261 14.499 18.8422 14.1857C18.7594 13.8725 18.5513 13.6007 18.271 13.4404C17.6148 13.0624 17.1466 12.453 16.9523 11.7225C16.7601 11.0059 16.8652 10.2234 17.24 9.57892C17.4842 9.15423 17.842 8.79643 18.271 8.55011C18.8464 8.21354 19.0482 7.46078 18.7137 6.87471C18.6999 6.85135 18.6872 6.82693 18.6765 6.80145L18.0544 5.72274C17.7157 5.13348 16.9619 4.93069 16.3705 5.26726C15.7313 5.64523 14.9711 5.75353 14.2407 5.56135C13.5113 5.37237 12.8997 4.91052 12.5185 4.25862C12.2743 3.85092 12.1416 3.37632 12.1374 2.89324C12.1469 2.53013 12.0195 2.20418 11.7881 1.96529C11.5577 1.72747 11.2339 1.59263 10.9015 1.59263H9.5712C9.24206 1.59263 8.93416 1.7211 8.70164 1.95255C8.47019 2.18507 8.34384 2.49403 8.34597 2.82317C8.32367 4.37541 7.05491 5.62506 5.51859 5.62506C5.02595 5.61975 4.55136 5.48703 4.13941 5.24071C3.56077 4.91158 2.80482 5.11437 2.46613 5.70363L1.74735 6.88533C1.41821 7.45653 1.61994 8.21142 2.20601 8.55223C3.07556 9.05549 3.61811 9.99406 3.61811 11.0006C3.61811 12.0071 3.07556 12.9446 2.20389 13.4489C1.621 13.7865 1.41927 14.5372 1.7569 15.1211L2.42685 16.2763C2.59248 16.5746 2.86322 16.7902 3.17643 16.8783C3.48858 16.9653 3.83257 16.9282 4.11924 16.7689C4.54074 16.5215 5.03126 16.3931 5.5239 16.3931M10.9011 22H9.57073C8.01105 22 6.74229 20.7323 6.74229 19.1726C6.74017 18.9805 6.68496 18.7808 6.58197 18.6078C6.41528 18.3169 6.1456 18.1088 5.83452 18.026C5.52556 17.9431 5.18686 17.9888 4.90869 18.1502C4.24193 18.5218 3.45732 18.612 2.73959 18.4103C2.02293 18.2075 1.40394 17.7149 1.04083 17.0619L0.377252 15.9184C-0.398869 14.5722 0.0629812 12.8469 1.40712 12.0697C1.78828 11.8499 2.02505 11.4401 2.02505 11.0005C2.02505 10.561 1.78828 10.1501 1.40712 9.93031C0.0619196 9.14888 -0.398869 7.41933 0.37619 6.07307L1.09604 4.89137C1.86154 3.55996 3.59215 3.09068 4.94161 3.86574C5.12529 3.9751 5.32489 4.03031 5.52768 4.03243C6.18913 4.03243 6.74229 3.4867 6.75291 2.81569C6.74866 2.07567 7.04064 1.36538 7.57256 0.829207C8.10661 0.294098 8.81584 0 9.57073 0H10.9011C11.6613 0 12.4002 0.312147 12.93 0.854688C13.4588 1.40041 13.7507 2.14893 13.7284 2.90806C13.7306 3.079 13.7868 3.27648 13.8888 3.44954C14.0576 3.73621 14.3241 3.93794 14.6405 4.02075C14.9569 4.09932 15.2881 4.05685 15.5695 3.89016C16.9285 3.11404 18.658 3.57907 19.4341 4.92746L20.0956 6.07307C20.1126 6.10386 20.1275 6.13358 20.1402 6.16437C20.8431 7.49259 20.3738 9.16481 19.0679 9.92819C18.8778 10.0375 18.7239 10.1904 18.6177 10.3752C18.4531 10.6608 18.4075 11.0005 18.4903 11.3127C18.5752 11.6312 18.778 11.8956 19.0636 12.0591C19.7081 12.4296 20.189 13.0539 20.3812 13.7748C20.5734 14.4947 20.4683 15.2761 20.0935 15.9206L19.3885 17.0948C18.6124 18.4284 16.8828 18.8902 15.5376 18.113C15.3582 18.01 15.1512 17.9538 14.9452 17.9485H14.9388C14.632 17.9485 14.3166 18.079 14.0873 18.3073C13.8548 18.5398 13.7274 18.8499 13.7295 19.179C13.7221 20.7387 12.4533 22 10.9011 22" fill="#707070"/>
</g>
<path fill-rule="evenodd" clip-rule="evenodd" d="M10.2395 8.99689C9.13529 8.99689 8.23707 9.89617 8.23707 11.0004C8.23707 12.1046 9.13529 13.0017 10.2395 13.0017C11.3437 13.0017 12.2419 12.1046 12.2419 11.0004C12.2419 9.89617 11.3437 8.99689 10.2395 8.99689ZM10.2395 14.5943C8.25729 14.5943 6.64453 12.9826 6.64453 11.0004C6.64453 9.01812 8.25729 7.4043 10.2395 7.4043C12.2218 7.4043 13.8345 9.01812 13.8345 11.0004C13.8345 12.9826 12.2218 14.5943 10.2395 14.5943Z" fill="#707070"/>
</svg>
