<svg width="25" height="25" viewBox="0 0 25 25" fill="none" xmlns="http://www.w3.org/2000/svg">
<path fill-rule="evenodd" clip-rule="evenodd" d="M1.68953 12.1798C1.68953 6.38489 6.37933 1.68953 12.1616 1.68953C17.944 1.68953 22.6337 6.38489 22.6337 12.1798C22.6337 17.9746 17.944 22.67 12.1616 22.67C6.37933 22.67 1.68953 17.9746 1.68953 12.1798ZM12.1616 0C5.44368 0 0 5.45434 0 12.1798C0 18.9052 5.44368 24.3595 12.1616 24.3595C18.8796 24.3595 24.3233 18.9052 24.3233 12.1798C24.3233 5.45434 18.8796 0 12.1616 0ZM8.06413 9.1505C8.06413 9.74414 7.58367 10.2254 6.99098 10.2254C6.3983 10.2254 5.91783 9.74414 5.91783 9.1505C5.91783 8.55687 6.3983 8.07563 6.99098 8.07563C7.58367 8.07563 8.06413 8.55687 8.06413 9.1505ZM17.3323 10.2254C17.925 10.2254 18.4054 9.74414 18.4054 9.1505C18.4054 8.55687 17.925 8.07563 17.3323 8.07563C16.7396 8.07563 16.2591 8.55687 16.2591 9.1505C16.2591 9.74414 16.7396 10.2254 17.3323 10.2254ZM7.28371 14.8528C6.81716 14.8528 6.43895 15.231 6.43895 15.6975C6.43895 16.1641 6.81716 16.5423 7.28371 16.5423H17.0396C17.5062 16.5423 17.8844 16.1641 17.8844 15.6975C17.8844 15.231 17.5062 14.8528 17.0396 14.8528H7.28371Z" fill="#707070"/>
</svg>
