<svg width="19" height="19" viewBox="0 0 19 19" fill="none" xmlns="http://www.w3.org/2000/svg">
<path fill-rule="evenodd" clip-rule="evenodd" d="M2.7 18H9.5C14.26 18 18 14.26 18 9.5C18 4.825 14.175 1 9.5 1C4.825 1 1 4.825 1 9.5V16.3C1 17.235 1.765 18 2.7 18ZM6.1 9.5C6.1 9.96944 5.71944 10.35 5.25 10.35C4.78056 10.35 4.4 9.96944 4.4 9.5C4.4 9.03056 4.78056 8.65 5.25 8.65C5.71944 8.65 6.1 9.03056 6.1 9.5ZM13.75 10.35C14.2194 10.35 14.6 9.96944 14.6 9.5C14.6 9.03056 14.2194 8.65 13.75 8.65C13.2806 8.65 12.9 9.03056 12.9 9.5C12.9 9.96944 13.2806 10.35 13.75 10.35ZM10.35 9.5C10.35 9.96944 9.96944 10.35 9.5 10.35C9.03056 10.35 8.65 9.96944 8.65 9.5C8.65 9.03056 9.03056 8.65 9.5 8.65C9.96944 8.65 10.35 9.03056 10.35 9.5Z" stroke="#959595" stroke-width="1.5" stroke-miterlimit="10" stroke-linecap="round" stroke-linejoin="round"/>
</svg>
