<svg width="277" height="279" viewBox="0 0 277 279" fill="none" xmlns="http://www.w3.org/2000/svg">
<g clip-path="url(#clip0_244_10446)">
<path fill-rule="evenodd" clip-rule="evenodd" d="M98.4843 91.7224C47.7559 91.7224 6.63939 132.18 6.63939 182.095C6.63939 232.01 47.7559 272.467 98.4843 272.467C139.895 272.467 174.929 245.485 186.378 208.409L192.731 210.309C180.455 250.06 142.899 279 98.4843 279C44.089 279 0 235.618 0 182.095C0 128.572 44.089 85.1895 98.4843 85.1895C152.88 85.1895 196.969 128.572 196.969 182.095H190.329C190.329 132.18 149.213 91.7224 98.4843 91.7224Z" fill="white"/>
<path fill-rule="evenodd" clip-rule="evenodd" d="M218.864 0.00402832L356.995 108.253L246.961 244.218L108.779 135.925L131.565 107.804L136.756 111.877L118.112 134.887L245.904 235.038L347.666 109.294L219.868 9.14205L155.281 87.251L150.131 83.128L218.864 0.00402832Z" fill="white"/>
</g>
<defs>
<clipPath id="clip0_244_10446">
<rect width="357" height="279" fill="white"/>
</clipPath>
</defs>
</svg>
