<svg width="23" height="23" viewBox="0 0 23 23" fill="none" xmlns="http://www.w3.org/2000/svg">
<path d="M22.2141 18.4127L18.3288 14.5219L15.3404 13.2854C16.3354 11.8683 16.8685 10.1778 16.8666 8.44539C16.8666 3.78857 13.0835 0 8.43331 0C3.78316 0 0 3.78857 0 8.44539C0 13.1022 3.78316 16.8908 8.43331 16.8908C10.1783 16.8928 11.8804 16.3497 13.3025 15.3372L14.534 18.3218L18.4191 22.2129C18.6683 22.4624 18.9641 22.6604 19.2897 22.7954C19.6152 22.9305 19.9641 23 20.3165 23C20.6689 23 21.0179 22.9305 21.3434 22.7955C21.669 22.6604 21.9648 22.4625 22.214 22.213C22.4632 21.9635 22.6608 21.6672 22.7957 21.3412C22.9306 21.0152 23 20.6658 23 20.3129C23 19.96 22.9306 19.6105 22.7958 19.2845C22.6609 18.9585 22.4633 18.6622 22.2141 18.4127ZM1.53333 8.44539C1.53333 4.63537 4.62874 1.53553 8.43331 1.53553C12.2379 1.53553 15.3333 4.63537 15.3333 8.44539C15.3333 12.2554 12.2379 15.3553 8.43331 15.3553C4.62874 15.3553 1.53333 12.2554 1.53333 8.44539ZM21.1298 21.1271C20.914 21.3428 20.6215 21.4639 20.3166 21.4639C20.0117 21.4639 19.7193 21.3428 19.5034 21.1271L15.8344 17.4528L14.6894 14.6776L17.4608 15.8241L21.1299 19.4984C21.3452 19.7146 21.4661 20.0075 21.4661 20.3128C21.4661 20.6181 21.3452 20.911 21.1298 21.1271Z" fill="#707070"/>
</svg>
