<svg width="25" height="23" viewBox="0 0 25 23" fill="none" xmlns="http://www.w3.org/2000/svg">
<mask id="mask0_489_10591" style="mask-type:luminance" maskUnits="userSpaceOnUse" x="2" y="0" width="13" height="12">
<path fill-rule="evenodd" clip-rule="evenodd" d="M2.78296 0H14.1067V11.8932H2.78296V0Z" fill="white"/>
</mask>
<g mask="url(#mask0_489_10591)">
<path fill-rule="evenodd" clip-rule="evenodd" d="M8.53392 1.59935C6.25106 1.59935 4.39363 3.54933 4.39363 5.94731C4.38617 8.33746 6.22973 10.2863 8.503 10.2953L8.53392 11.095V10.2953C10.8157 10.2953 12.6721 8.34418 12.6721 5.94731C12.6721 3.54933 10.8157 1.59935 8.53392 1.59935ZM8.53392 11.8936H8.4998C5.38418 11.8835 2.86034 9.21449 2.87101 5.944C2.87101 2.66791 5.41084 0 8.53392 0C11.6559 0 14.1947 2.66791 14.1947 5.94736C14.1947 9.22681 11.6559 11.8936 8.53392 11.8936Z" fill="#9B9B9B"/>
</g>
<mask id="mask1_489_10591" style="mask-type:luminance" maskUnits="userSpaceOnUse" x="0" y="13" width="17" height="10">
<path fill-rule="evenodd" clip-rule="evenodd" d="M0 13.9958H16.8895V22.255H0V13.9958Z" fill="white"/>
</mask>
<g mask="url(#mask1_489_10591)">
<path fill-rule="evenodd" clip-rule="evenodd" d="M8.44594 15.6757C3.9026 15.6757 1.59948 16.4956 1.59948 18.114C1.59948 19.747 3.9026 20.5747 8.44594 20.5747C12.9882 20.5747 15.2903 19.7549 15.2903 18.1364C15.2903 16.5034 12.9882 15.6757 8.44594 15.6757ZM8.44573 22.255C6.35692 22.255 -0.00012207 22.255 -0.00012207 18.1142C-0.00012207 14.4226 4.82044 13.9958 8.44573 13.9958C10.5345 13.9958 16.8894 13.9958 16.8894 18.1366C16.8894 21.8282 12.0699 22.255 8.44573 22.255Z" fill="#9B9B9B"/>
</g>
<path fill-rule="evenodd" clip-rule="evenodd" d="M18.6055 11.4968C19.1578 11.4968 19.6055 11.9445 19.6055 12.4968V14.2738C19.6055 14.7339 19.9785 15.1069 20.4386 15.1069C20.8988 15.1069 21.2717 14.7339 21.2717 14.2738V12.4968C21.2717 11.9445 21.7195 11.4968 22.2717 11.4968H24.0491C24.5092 11.4968 24.8822 11.1238 24.8822 10.6637C24.8822 10.2035 24.5092 9.83055 24.0491 9.83055H22.2717C21.7195 9.83055 21.2717 9.38283 21.2717 8.83055V7.05356C21.2717 6.59345 20.8988 6.22046 20.4386 6.22046C19.9785 6.22046 19.6055 6.59345 19.6055 7.05356V8.83055C19.6055 9.38283 19.1578 9.83055 18.6055 9.83055H16.8288C16.3687 9.83055 15.9957 10.2035 15.9957 10.6637C15.9957 11.1238 16.3687 11.4968 16.8288 11.4968H18.6055Z" fill="#9B9B9B"/>
</svg>
