<svg width="19" height="17" viewBox="0 0 19 17" fill="none" xmlns="http://www.w3.org/2000/svg">
<path fill-rule="evenodd" clip-rule="evenodd" d="M7.50006 14.3677H0.936523C0.505273 14.3677 0.155273 14.0177 0.155273 13.5864C0.155273 13.1552 0.505273 12.8052 0.936523 12.8052H7.50006C7.93131 12.8052 8.28131 13.1552 8.28131 13.5864C8.28131 14.0177 7.93131 14.3677 7.50006 14.3677Z" fill="#707070"/>
<path fill-rule="evenodd" clip-rule="evenodd" d="M16.9905 4.27148H10.428C9.99673 4.27148 9.64673 3.92148 9.64673 3.49023C9.64673 3.05898 9.99673 2.70898 10.428 2.70898H16.9905C17.4217 2.70898 17.7717 3.05898 17.7717 3.49023C17.7717 3.92148 17.4217 4.27148 16.9905 4.27148Z" fill="#707070"/>
<mask id="mask0_686_6698" style="mask-type:luminance" maskUnits="userSpaceOnUse" x="0" y="0" width="7" height="7">
<path fill-rule="evenodd" clip-rule="evenodd" d="M0.125 0.208984H6.61021V6.65857H0.125V0.208984Z" fill="white"/>
</mask>
<g mask="url(#mask0_686_6698)">
<path fill-rule="evenodd" clip-rule="evenodd" d="M3.36746 1.771C2.44142 1.771 1.68726 2.51683 1.68726 3.43454C1.68726 4.3512 2.44142 5.096 3.36746 5.096C4.29455 5.096 5.04767 4.3512 5.04767 3.43454C5.04767 2.51683 4.29455 1.771 3.36746 1.771ZM3.36746 6.6585C1.57996 6.6585 0.124756 5.21266 0.124756 3.43454C0.124756 1.65641 1.57996 0.208496 3.36746 0.208496C5.156 0.208496 6.61017 1.65641 6.61017 3.43454C6.61017 5.21266 5.156 6.6585 3.36746 6.6585Z" fill="#707070"/>
</g>
<path fill-rule="evenodd" clip-rule="evenodd" d="M15.1122 11.8838C14.1851 11.8838 13.4309 12.6296 13.4309 13.5463C13.4309 14.464 14.1851 15.2088 15.1122 15.2088C16.0382 15.2088 16.7913 14.464 16.7913 13.5463C16.7913 12.6296 16.0382 11.8838 15.1122 11.8838ZM15.1122 16.7713C13.3236 16.7713 11.8684 15.3244 11.8684 13.5463C11.8684 11.7682 13.3236 10.3213 15.1122 10.3213C16.8997 10.3213 18.3538 11.7682 18.3538 13.5463C18.3538 15.3244 16.8997 16.7713 15.1122 16.7713Z" fill="#707070"/>
</svg>
